<?xml version="1.0" standalone="no"?>
<!DOCTYPE svg PUBLIC "-//W3C//DTD SVG 20010904//EN"
 "http://www.w3.org/TR/2001/REC-SVG-20010904/DTD/svg10.dtd">
<svg version="1.0" xmlns="http://www.w3.org/2000/svg"
 width="3482.000000pt" height="3482.000000pt" viewBox="0 0 3482.000000 3482.000000"
 preserveAspectRatio="xMidYMid meet">
<metadata>
Created by potrace 1.14, written by Peter Selinger 2001-2017
</metadata>
<g transform="translate(0.000000,3482.000000) scale(0.100000,-0.100000)"
fill="#000000" stroke="none">
<path d="M7220 18085 l0 -10155 10150 0 10150 0 0 10155 0 10155 -10150 0
-10150 0 0 -10155z m20120 0 l0 -9975 -9975 0 -9975 0 0 9975 0 9975 9975 0
9975 0 0 -9975z"/>
<path d="M13236 25709 c-294 -15 -586 -65 -821 -140 -868 -277 -1514 -948
-1769 -1837 -80 -278 -110 -495 -109 -797 2 -600 144 -1107 432 -1542 410
-618 1073 -979 1998 -1090 214 -25 796 -26 968 0 368 54 704 144 1049 279 173
68 462 207 557 267 l47 30 5 728 c5 754 8 812 48 903 36 81 113 145 218 181
60 21 183 53 244 63 35 7 37 9 37 46 l0 40 -1080 0 -1080 0 0 -39 0 -40 58 -6
c227 -27 410 -98 512 -198 107 -106 156 -210 181 -387 22 -148 19 -747 -4
-910 -27 -188 -53 -288 -95 -360 -46 -78 -185 -222 -271 -280 -219 -147 -532
-230 -869 -230 -485 0 -910 153 -1262 455 -398 341 -668 910 -754 1590 -107
834 54 1628 452 2233 297 453 745 774 1215 872 157 33 289 43 477 37 415 -14
766 -124 1085 -341 99 -67 264 -221 349 -325 191 -233 386 -616 467 -913 l24
-88 47 0 48 0 0 810 0 810 -32 0 c-31 0 -41 -12 -146 -150 -63 -83 -121 -150
-129 -150 -8 0 -52 22 -97 49 -261 157 -570 272 -966 360 -302 67 -644 90
-1034 70z"/>
<path d="M17117 17962 c-2792 -2792 -5077 -5082 -5077 -5087 0 -6 27 -37 60
-70 l60 -60 5080 5080 c2794 2794 5080 5085 5080 5090 0 10 -111 125 -120 125
-3 0 -2290 -2285 -5083 -5078z"/>
<path d="M24155 15894 c-65 -24 -266 -73 -366 -89 -152 -25 -972 -38 -2374
-38 -1618 -1 -1874 8 -2210 77 -66 14 -123 22 -126 18 -12 -15 -222 -1383
-213 -1392 5 -5 23 -12 40 -16 29 -5 31 -3 43 35 56 190 401 718 568 871 180
164 353 234 648 259 66 6 333 11 594 11 l474 0 -6 -2022 c-7 -2253 -10 -2385
-67 -2580 -18 -58 -29 -75 -93 -140 -151 -153 -275 -207 -594 -258 l-73 -12 0
-39 0 -39 1195 0 1195 0 0 40 c0 33 -4 40 -22 44 -115 25 -335 83 -386 102
-172 64 -290 195 -323 359 -14 69 -26 3715 -14 4243 l7 304 552 -5 c606 -5
691 -12 857 -67 206 -69 337 -186 557 -500 110 -157 201 -309 284 -474 l69
-138 32 6 c17 4 35 10 38 14 6 6 -206 1335 -226 1420 -6 25 -7 25 -60 6z"/>
</g>
</svg>
